<svg width="390" height="333" viewBox="0 0 390 333" fill="none" xmlns="http://www.w3.org/2000/svg">
<g filter="url(#filter0_b_1_5667)">
<rect width="394" height="333" transform="translate(-4)" fill="#D1D5DB"/>
<rect x="118.365" y="318.569" width="153.073" height="5.71167" rx="2.85583" fill="black"/>
<path fill-rule="evenodd" clip-rule="evenodd" d="M319.004 207.93C318.902 208.038 318.792 208.156 318.646 208.316C318.646 208.316 316.242 210.937 316.234 210.945C316.159 211.022 316.097 211.088 316.033 211.157C316.003 211.19 315.977 211.218 315.921 211.278C315.872 211.33 315.85 211.354 315.822 211.384L313.648 213.755C313.601 213.807 313.561 213.852 313.51 213.908L313.451 213.972C313.385 214.045 313.332 214.104 313.258 214.188C313.088 214.371 312.915 214.578 312.752 214.795C312.601 214.97 312.479 215.173 312.392 215.394L312.369 215.461C312.212 215.992 312.212 216.562 312.369 217.093L312.393 217.162C312.481 217.383 312.604 217.585 312.755 217.759C312.917 217.976 313.09 218.183 313.272 218.379C313.31 218.424 313.367 218.487 313.443 218.57C313.495 218.626 313.517 218.651 313.545 218.682C313.581 218.721 313.612 218.756 313.641 218.789L315.822 221.167C315.93 221.285 315.978 221.337 316.064 221.429C316.136 221.506 316.178 221.55 316.256 221.629L318.649 224.239C318.828 224.434 318.908 224.522 319.01 224.63C319.142 224.774 319.229 224.867 319.364 225.011C319.415 225.07 319.435 225.091 319.461 225.118C319.767 225.453 320.141 225.75 320.55 225.977C320.96 226.202 321.394 226.358 321.842 226.442C322.262 226.517 322.681 226.558 323.101 226.563C323.279 226.568 323.458 226.57 323.634 226.571L324.055 226.571H331.878C332.04 226.571 332.201 226.569 332.424 226.563C332.842 226.558 333.265 226.517 333.684 226.442C334.141 226.356 334.578 226.199 334.987 225.974C335.401 225.746 335.78 225.447 336.107 225.089C336.434 224.732 336.707 224.323 336.917 223.875C337.125 223.424 337.269 222.947 337.347 222.454C337.416 221.993 337.453 221.532 337.458 221.071C337.461 220.957 337.463 220.857 337.465 220.635L337.467 220.493L337.467 219.791V212.024L337.466 211.901C337.464 211.764 337.464 211.704 337.463 211.627C337.461 211.555 337.46 211.489 337.458 211.426C337.454 210.982 337.417 210.525 337.349 210.074C337.271 209.579 337.128 209.106 336.924 208.664C336.713 208.214 336.442 207.807 336.118 207.454C335.794 207.099 335.419 206.801 335.008 206.575C334.602 206.351 334.168 206.194 333.72 206.11C333.298 206.035 332.879 205.995 332.459 205.989C332.269 205.984 332.094 205.982 331.925 205.982C331.755 205.98 331.614 205.979 331.297 205.979H324.263C323.949 205.979 323.807 205.98 323.629 205.982C323.467 205.982 323.293 205.984 323.092 205.99C322.68 205.995 322.261 206.035 321.847 206.109C321.392 206.195 320.958 206.351 320.552 206.574C320.139 206.803 319.766 207.099 319.441 207.454C319.426 207.471 319.415 207.483 319.324 207.59C319.21 207.707 319.105 207.819 319.004 207.93ZM316.281 210.901L316.284 210.899L316.281 210.901L316.276 210.906L316.281 210.901ZM319.639 223.161L317.221 220.522C317.221 220.522 317.172 220.475 317.167 220.47C317.13 220.431 317.098 220.397 317.018 220.311C316.96 220.25 316.915 220.201 316.812 220.089L314.641 217.72C314.616 217.691 314.58 217.652 314.54 217.608C314.51 217.575 314.486 217.548 314.433 217.491C314.366 217.418 314.319 217.365 314.274 217.314C314.104 217.13 313.96 216.957 313.826 216.775L313.779 216.718C313.744 216.679 313.714 216.634 313.691 216.585C313.638 216.383 313.638 216.169 313.691 215.967C313.714 215.917 313.744 215.872 313.78 215.831L313.823 215.779C313.958 215.597 314.103 215.423 314.256 215.258C314.338 215.166 314.385 215.112 314.421 215.073L314.469 215.021L314.502 214.984C314.559 214.922 314.605 214.872 314.648 214.822L316.812 212.464C316.835 212.438 316.855 212.416 316.912 212.355C316.961 212.303 316.99 212.272 317.021 212.238C317.07 212.185 317.118 212.134 317.165 212.085C317.176 212.075 317.188 212.063 317.222 212.028L319.639 209.393C319.781 209.237 319.886 209.123 319.989 209.014C320.088 208.906 320.183 208.805 320.284 208.701C320.306 208.678 320.319 208.663 320.381 208.591C320.413 208.554 320.429 208.536 320.43 208.535C320.654 208.29 320.907 208.089 321.185 207.935C321.465 207.781 321.767 207.672 322.079 207.613C322.418 207.553 322.767 207.52 323.118 207.515C323.315 207.51 323.48 207.507 323.636 207.507C323.815 207.505 323.953 207.505 324.263 207.505H331.297C331.609 207.505 331.747 207.505 331.918 207.507C332.081 207.507 332.246 207.51 332.433 207.515C332.792 207.52 333.142 207.553 333.488 207.614C333.792 207.672 334.094 207.781 334.375 207.936C334.653 208.089 334.906 208.289 335.125 208.53C335.347 208.772 335.532 209.05 335.675 209.353C335.815 209.656 335.914 209.986 335.968 210.326C336.023 210.696 336.054 211.076 336.058 211.458C336.06 211.528 336.061 211.588 336.062 211.654C336.063 211.726 336.064 211.784 336.065 211.918L336.066 212.033L336.066 212.708V220.476L336.065 220.617C336.062 220.83 336.061 220.924 336.058 221.039C336.053 221.438 336.023 221.822 335.965 222.202C335.912 222.54 335.812 222.874 335.668 223.185C335.526 223.487 335.339 223.768 335.116 224.012C334.893 224.255 334.636 224.457 334.355 224.612C334.07 224.769 333.766 224.879 333.451 224.938C333.107 224.999 332.754 225.033 332.4 225.038C332.18 225.043 332.028 225.045 331.878 225.045H323.637C323.472 225.045 323.302 225.042 323.125 225.038C322.769 225.033 322.42 225 322.075 224.938C321.768 224.88 321.466 224.771 321.183 224.616C320.909 224.464 320.655 224.262 320.434 224.022C320.421 224.008 320.403 223.987 320.38 223.96L320.377 223.957C320.322 223.894 320.309 223.879 320.296 223.866L320.281 223.85C320.201 223.768 320.122 223.684 319.996 223.547C319.894 223.437 319.815 223.352 319.639 223.161ZM324.662 220.312C324.606 220.373 324.537 220.423 324.461 220.458C324.226 220.564 323.956 220.505 323.776 220.31C323.658 220.181 323.591 220.007 323.591 219.825C323.591 219.643 323.658 219.469 323.776 219.341V219.342C323.81 219.305 323.847 219.273 323.887 219.246L326.613 216.274L323.776 213.188L323.785 213.178C323.728 213.116 323.682 213.042 323.65 212.958C323.553 212.702 323.607 212.408 323.787 212.212C323.905 212.083 324.065 212.01 324.232 212.01C324.4 212.01 324.56 212.083 324.678 212.212H324.675C324.705 212.245 324.732 212.281 324.755 212.319L327.5 215.306L330.25 212.307C330.272 212.273 330.296 212.24 330.324 212.21C330.504 212.014 330.774 211.956 331.009 212.062C331.243 212.168 331.396 212.417 331.396 212.694C331.396 212.878 331.329 213.05 331.215 213.175L331.222 213.183L328.388 216.273L331.131 219.259C331.164 219.283 331.196 219.311 331.225 219.343L331.223 219.344C331.403 219.54 331.457 219.834 331.359 220.09C331.262 220.345 331.033 220.512 330.779 220.512C330.61 220.512 330.452 220.438 330.337 220.314L330.332 220.32L327.501 217.241L324.674 220.324L324.662 220.312Z" fill="black"/>
<g filter="url(#filter1_d_1_5667)">
<path fill-rule="evenodd" clip-rule="evenodd" d="M131.536 196.815C131.536 193.66 134.093 191.103 137.248 191.103H248.752C251.907 191.103 254.464 193.66 254.464 196.815V238.031C254.464 241.185 251.907 243.742 248.752 243.742H137.248C134.093 243.742 131.536 241.185 131.536 238.031V196.815Z" fill="#FCFCFE"/>
</g>
<path d="M199.263 213.344V216.44C199.263 218.104 199.114 219.508 198.817 220.651C198.519 221.795 198.092 222.715 197.534 223.412C196.976 224.109 196.302 224.616 195.512 224.932C194.731 225.239 193.848 225.392 192.863 225.392C192.082 225.392 191.361 225.295 190.701 225.099C190.041 224.904 189.446 224.593 188.916 224.165C188.396 223.728 187.95 223.161 187.578 222.464C187.206 221.767 186.922 220.921 186.727 219.926C186.532 218.931 186.434 217.769 186.434 216.44V213.344C186.434 211.68 186.583 210.286 186.88 209.161C187.187 208.036 187.62 207.134 188.177 206.456C188.735 205.768 189.404 205.275 190.185 204.978C190.975 204.68 191.859 204.531 192.835 204.531C193.625 204.531 194.35 204.629 195.01 204.824C195.679 205.01 196.274 205.312 196.795 205.731C197.316 206.14 197.757 206.688 198.12 207.376C198.492 208.055 198.775 208.887 198.97 209.872C199.166 210.857 199.263 212.015 199.263 213.344ZM196.669 216.858V212.912C196.669 212.001 196.614 211.201 196.502 210.513C196.4 209.816 196.246 209.221 196.042 208.729C195.837 208.236 195.577 207.836 195.261 207.529C194.954 207.223 194.596 206.999 194.187 206.86C193.788 206.711 193.337 206.637 192.835 206.637C192.221 206.637 191.677 206.753 191.203 206.986C190.729 207.209 190.329 207.567 190.004 208.059C189.688 208.552 189.446 209.198 189.279 209.998C189.112 210.797 189.028 211.768 189.028 212.912V216.858C189.028 217.769 189.079 218.573 189.181 219.271C189.293 219.968 189.456 220.572 189.669 221.083C189.883 221.585 190.143 221.999 190.45 222.324C190.757 222.65 191.11 222.892 191.51 223.05C191.919 223.198 192.37 223.273 192.863 223.273C193.495 223.273 194.048 223.152 194.522 222.91C194.996 222.668 195.391 222.292 195.707 221.781C196.033 221.26 196.274 220.595 196.432 219.787C196.59 218.968 196.669 217.992 196.669 216.858Z" fill="black"/>
<g filter="url(#filter2_d_1_5667)">
<path fill-rule="evenodd" clip-rule="evenodd" d="M260.768 135.021C260.768 131.867 263.325 129.309 266.48 129.309H377.984C381.139 129.309 383.696 131.866 383.696 135.021V177.381C383.696 180.536 381.139 183.093 377.984 183.093H266.48C263.325 183.093 260.768 180.536 260.768 177.381V135.021Z" fill="#FCFCFE"/>
</g>
<path d="M305.721 171.928L307.339 165.095H308.243L308.449 166.233L306.725 173.216H305.755L305.721 171.928ZM304.89 165.095L306.229 171.928L306.118 173.216H305.035L303.234 165.095H304.89ZM309.871 171.9L311.193 165.095H312.85L311.054 173.216H309.972L309.871 171.9ZM308.75 165.095L310.379 171.956L310.334 173.216H309.364L307.629 166.227L307.852 165.095H308.75ZM317.421 165.095L318.95 167.929L320.478 165.095H322.391L320.032 169.122L322.453 173.216H320.523L318.95 170.327L317.377 173.216H315.436L317.862 169.122L315.497 165.095H317.421ZM326.695 165.095L328.391 168.799L330.086 165.095H331.91L329.239 170.26V173.216H327.543V170.26L324.866 165.095H326.695ZM340.81 171.911V173.216H335.054V171.911H340.81ZM340.727 166.026L335.796 173.216H334.619V172.257L339.589 165.095H340.727V166.026ZM340.152 165.095V166.406H334.625V165.095H340.152Z" fill="black"/>
<path d="M318.316 154.317H318.581C320.068 154.317 321.276 154.108 322.206 153.69C323.136 153.271 323.852 152.709 324.354 152.002C324.856 151.296 325.2 150.501 325.385 149.618C325.571 148.725 325.664 147.81 325.664 146.871V143.761C325.664 142.841 325.557 142.023 325.344 141.307C325.139 140.591 324.851 139.991 324.479 139.508C324.117 139.025 323.703 138.657 323.238 138.406C322.773 138.155 322.28 138.03 321.76 138.03C321.165 138.03 320.63 138.151 320.156 138.392C319.691 138.625 319.296 138.955 318.971 139.383C318.655 139.81 318.413 140.312 318.246 140.889C318.079 141.465 317.995 142.092 317.995 142.771C317.995 143.375 318.069 143.961 318.218 144.528C318.367 145.095 318.594 145.606 318.901 146.062C319.208 146.517 319.589 146.88 320.045 147.15C320.51 147.41 321.053 147.54 321.676 147.54C322.253 147.54 322.792 147.429 323.294 147.205C323.805 146.973 324.256 146.662 324.646 146.271C325.046 145.871 325.362 145.42 325.595 144.918C325.836 144.416 325.976 143.891 326.013 143.343H327.24C327.24 144.114 327.087 144.877 326.78 145.63C326.482 146.373 326.064 147.052 325.525 147.666C324.986 148.279 324.354 148.772 323.628 149.144C322.903 149.506 322.113 149.688 321.258 149.688C320.254 149.688 319.385 149.492 318.65 149.102C317.916 148.711 317.312 148.191 316.837 147.54C316.373 146.889 316.024 146.164 315.792 145.365C315.569 144.556 315.457 143.738 315.457 142.91C315.457 141.944 315.592 141.037 315.861 140.191C316.131 139.345 316.531 138.602 317.061 137.96C317.59 137.309 318.246 136.803 319.027 136.44C319.817 136.078 320.728 135.896 321.76 135.896C322.922 135.896 323.912 136.129 324.73 136.594C325.548 137.058 326.213 137.681 326.724 138.462C327.245 139.243 327.626 140.122 327.868 141.098C328.109 142.074 328.23 143.078 328.23 144.11V145.044C328.23 146.094 328.16 147.164 328.021 148.251C327.891 149.33 327.635 150.361 327.254 151.347C326.882 152.332 326.338 153.215 325.623 153.996C324.907 154.768 323.972 155.382 322.82 155.837C321.676 156.283 320.263 156.506 318.581 156.506H318.316V154.317Z" fill="black"/>
<g filter="url(#filter3_d_1_5667)">
<path fill-rule="evenodd" clip-rule="evenodd" d="M131.536 135.021C131.536 131.866 134.093 129.309 137.248 129.309H248.752C251.907 129.309 254.464 131.866 254.464 135.021V177.381C254.464 180.536 251.907 183.093 248.752 183.093H137.248C134.093 183.093 131.536 180.536 131.536 177.381V135.021Z" fill="#FCFCFE"/>
</g>
<path d="M183.896 165.095V173.216H182.228V165.095H183.896ZM186.395 165.095V166.406H179.768V165.095H186.395ZM194.118 165.095H195.785V170.461C195.785 171.086 195.652 171.612 195.384 172.039C195.12 172.467 194.754 172.789 194.285 173.004C193.82 173.22 193.285 173.328 192.679 173.328C192.072 173.328 191.533 173.22 191.061 173.004C190.592 172.789 190.224 172.467 189.957 172.039C189.693 171.612 189.561 171.086 189.561 170.461V165.095H191.234V170.461C191.234 170.825 191.292 171.123 191.407 171.353C191.522 171.584 191.688 171.753 191.903 171.861C192.123 171.969 192.381 172.023 192.679 172.023C192.983 172.023 193.242 171.969 193.454 171.861C193.67 171.753 193.833 171.584 193.945 171.353C194.06 171.123 194.118 170.825 194.118 170.461V165.095ZM202.376 171.521L204.289 165.095H206.152L203.324 173.216H202.097L202.376 171.521ZM200.614 165.095L202.521 171.521L202.811 173.216H201.573L198.762 165.095H200.614Z" fill="black"/>
<path d="M199.319 150.984C199.319 152.221 199.031 153.271 198.454 154.136C197.887 154.991 197.116 155.642 196.14 156.088C195.173 156.534 194.08 156.757 192.863 156.757C191.645 156.757 190.548 156.534 189.572 156.088C188.596 155.642 187.824 154.991 187.257 154.136C186.69 153.271 186.406 152.221 186.406 150.984C186.406 150.176 186.56 149.437 186.866 148.767C187.183 148.089 187.624 147.498 188.191 146.996C188.768 146.494 189.446 146.108 190.227 145.839C191.017 145.56 191.887 145.42 192.835 145.42C194.08 145.42 195.191 145.662 196.167 146.146C197.144 146.62 197.911 147.275 198.468 148.112C199.035 148.948 199.319 149.906 199.319 150.984ZM196.725 150.929C196.725 150.176 196.563 149.511 196.237 148.935C195.912 148.349 195.456 147.893 194.871 147.568C194.285 147.243 193.606 147.08 192.835 147.08C192.045 147.08 191.361 147.243 190.785 147.568C190.218 147.893 189.776 148.349 189.46 148.935C189.144 149.511 188.986 150.176 188.986 150.929C188.986 151.709 189.139 152.379 189.446 152.937C189.762 153.485 190.209 153.908 190.785 154.206C191.371 154.494 192.063 154.638 192.863 154.638C193.662 154.638 194.35 154.494 194.926 154.206C195.503 153.908 195.944 153.485 196.251 152.937C196.567 152.379 196.725 151.709 196.725 150.929ZM198.845 141.46C198.845 142.446 198.585 143.333 198.064 144.124C197.543 144.914 196.832 145.537 195.93 145.992C195.029 146.448 194.006 146.676 192.863 146.676C191.701 146.676 190.664 146.448 189.753 145.992C188.851 145.537 188.145 144.914 187.633 144.124C187.122 143.333 186.866 142.446 186.866 141.46C186.866 140.28 187.122 139.276 187.633 138.448C188.154 137.621 188.865 136.989 189.767 136.552C190.669 136.115 191.696 135.896 192.849 135.896C194.011 135.896 195.043 136.115 195.944 136.552C196.846 136.989 197.553 137.621 198.064 138.448C198.585 139.276 198.845 140.28 198.845 141.46ZM196.265 141.502C196.265 140.823 196.121 140.224 195.833 139.703C195.545 139.183 195.145 138.774 194.634 138.476C194.122 138.169 193.527 138.016 192.849 138.016C192.17 138.016 191.575 138.16 191.064 138.448C190.562 138.727 190.167 139.127 189.879 139.647C189.6 140.168 189.46 140.786 189.46 141.502C189.46 142.199 189.6 142.808 189.879 143.329C190.167 143.849 190.566 144.254 191.078 144.542C191.589 144.83 192.184 144.974 192.863 144.974C193.541 144.974 194.132 144.83 194.634 144.542C195.145 144.254 195.545 143.849 195.833 143.329C196.121 142.808 196.265 142.199 196.265 141.502Z" fill="black"/>
<g filter="url(#filter4_d_1_5667)">
<path fill-rule="evenodd" clip-rule="evenodd" d="M2.3042 135.021C2.3042 131.866 4.8614 129.309 8.01587 129.309H119.521C122.675 129.309 125.232 131.866 125.232 135.021V177.381C125.232 180.536 122.675 183.093 119.521 183.093H8.01587C4.8614 183.093 2.3042 180.536 2.3042 177.381V135.021Z" fill="#FCFCFE"/>
</g>
<path d="M49.2935 170.321H47.2242V169.016H49.2935C49.6133 169.016 49.8736 168.964 50.0744 168.86C50.2752 168.752 50.4221 168.603 50.5151 168.414C50.608 168.224 50.6545 168.01 50.6545 167.772C50.6545 167.531 50.608 167.306 50.5151 167.097C50.4221 166.889 50.2752 166.722 50.0744 166.595C49.8736 166.469 49.6133 166.406 49.2935 166.406H47.8042V173.216H46.1309V165.095H49.2935C49.9294 165.095 50.4742 165.21 50.9278 165.441C51.3852 165.668 51.7347 165.982 51.9764 166.383C52.2181 166.785 52.339 167.244 52.339 167.761C52.339 168.285 52.2181 168.739 51.9764 169.122C51.7347 169.505 51.3852 169.801 50.9278 170.009C50.4742 170.217 49.9294 170.321 49.2935 170.321ZM60.1903 172.011L62.388 173.752L61.3338 174.666L59.1696 172.926L60.1903 172.011ZM62.4437 168.966V169.351C62.4437 169.968 62.3601 170.522 62.1927 171.013C62.0291 171.504 61.793 171.922 61.4844 172.268C61.1757 172.61 60.8113 172.872 60.3911 173.055C59.9709 173.237 59.5042 173.328 58.9911 173.328C58.4816 173.328 58.015 173.237 57.5911 173.055C57.1671 172.872 56.8009 172.61 56.4922 172.268C56.1836 171.922 55.9437 171.504 55.7727 171.013C55.6054 170.522 55.5217 169.968 55.5217 169.351V168.966C55.5217 168.345 55.6054 167.791 55.7727 167.304C55.9437 166.813 56.1817 166.395 56.4867 166.049C56.7916 165.703 57.156 165.439 57.5799 165.257C58.0038 165.075 58.4705 164.983 58.9799 164.983C59.4931 164.983 59.9598 165.075 60.38 165.257C60.8039 165.439 61.1701 165.703 61.4788 166.049C61.7874 166.395 62.0254 166.813 62.1927 167.304C62.3601 167.791 62.4437 168.345 62.4437 168.966ZM60.7537 169.351V168.955C60.7537 168.523 60.7128 168.144 60.631 167.817C60.5529 167.49 60.4376 167.215 60.2851 166.991C60.1364 166.768 59.9523 166.601 59.7329 166.489C59.5135 166.374 59.2625 166.317 58.9799 166.317C58.6973 166.317 58.4463 166.374 58.2269 166.489C58.0075 166.601 57.8235 166.768 57.6747 166.991C57.526 167.215 57.4126 167.49 57.3345 167.817C57.2564 168.144 57.2173 168.523 57.2173 168.955V169.351C57.2173 169.778 57.2564 170.158 57.3345 170.489C57.4126 170.816 57.526 171.093 57.6747 171.32C57.8272 171.543 58.0131 171.712 58.2325 171.827C58.4556 171.943 58.7085 172 58.9911 172C59.2737 172 59.5228 171.943 59.7385 171.827C59.9579 171.712 60.142 171.543 60.2907 171.32C60.4432 171.093 60.5584 170.816 60.6365 170.489C60.7146 170.158 60.7537 169.778 60.7537 169.351ZM65.9388 165.095H68.9675C69.5885 165.095 70.1221 165.188 70.5684 165.374C71.0183 165.56 71.3641 165.835 71.6058 166.199C71.8475 166.564 71.9684 167.012 71.9684 167.544C71.9684 167.979 71.894 168.352 71.7453 168.665C71.6003 168.973 71.3939 169.232 71.1261 169.44C70.8621 169.645 70.5516 169.808 70.1947 169.931L69.6648 170.21H67.032L67.0209 168.905H68.9787C69.2725 168.905 69.516 168.853 69.7094 168.748C69.9027 168.644 70.0478 168.499 70.1445 168.313C70.2449 168.127 70.2951 167.912 70.2951 167.666C70.2951 167.406 70.2467 167.181 70.15 166.991C70.0533 166.802 69.9065 166.657 69.7094 166.556C69.5123 166.456 69.265 166.406 68.9675 166.406H67.6121V173.216H65.9388V165.095ZM70.4791 173.216L68.6273 169.596L70.3955 169.585L72.2696 173.138V173.216H70.4791ZM79.7695 171.091C79.7695 170.946 79.7472 170.816 79.7026 170.701C79.6617 170.582 79.5836 170.474 79.4683 170.377C79.353 170.277 79.1913 170.178 78.983 170.082C78.7748 169.985 78.5052 169.884 78.1743 169.78C77.8061 169.661 77.4566 169.527 77.1256 169.379C76.7984 169.23 76.5084 169.057 76.2555 168.86C76.0064 168.659 75.8093 168.427 75.6642 168.163C75.5229 167.899 75.4523 167.592 75.4523 167.242C75.4523 166.904 75.5267 166.597 75.6754 166.322C75.8241 166.043 76.0324 165.805 76.3001 165.608C76.5679 165.407 76.8839 165.253 77.2483 165.145C77.6165 165.037 78.0199 164.983 78.4587 164.983C79.0574 164.983 79.5799 165.091 80.0261 165.307C80.4723 165.523 80.8181 165.818 81.0636 166.194C81.3127 166.569 81.4373 166.999 81.4373 167.482H79.7751C79.7751 167.244 79.7249 167.036 79.6245 166.858C79.5278 166.675 79.3791 166.532 79.1783 166.428C78.9812 166.324 78.732 166.272 78.4308 166.272C78.1408 166.272 77.8991 166.317 77.7057 166.406C77.5124 166.491 77.3673 166.608 77.2707 166.757C77.174 166.902 77.1256 167.066 77.1256 167.248C77.1256 167.386 77.1591 167.51 77.226 167.622C77.2967 167.733 77.4008 167.837 77.5384 167.934C77.676 168.031 77.8452 168.122 78.046 168.207C78.2468 168.293 78.4792 168.377 78.7432 168.458C79.1857 168.592 79.5743 168.743 79.909 168.91C80.2473 169.078 80.5299 169.265 80.7568 169.474C80.9836 169.682 81.1547 169.918 81.2699 170.182C81.3852 170.446 81.4428 170.745 81.4428 171.08C81.4428 171.433 81.3741 171.749 81.2365 172.028C81.0989 172.307 80.8999 172.543 80.6396 172.737C80.3793 172.93 80.0688 173.077 79.7082 173.177C79.3475 173.278 78.944 173.328 78.4978 173.328C78.0962 173.328 77.7001 173.276 77.3097 173.172C76.9193 173.064 76.5641 172.902 76.2443 172.686C75.9283 172.471 75.6754 172.196 75.4858 171.861C75.2961 171.526 75.2013 171.13 75.2013 170.673H76.8802C76.8802 170.926 76.9193 171.139 76.9973 171.314C77.0754 171.489 77.1851 171.63 77.3264 171.738C77.4715 171.846 77.6425 171.924 77.8396 171.972C78.0404 172.021 78.2598 172.045 78.4978 172.045C78.7878 172.045 79.0258 172.004 79.2117 171.922C79.4014 171.84 79.5408 171.727 79.6301 171.582C79.723 171.437 79.7695 171.273 79.7695 171.091Z" fill="black"/>
<path d="M70.4077 136.175V137.626L61.9992 156.478H59.28L67.6746 138.295H56.6863V136.175H70.4077Z" fill="black"/>
<g filter="url(#filter5_d_1_5667)">
<path fill-rule="evenodd" clip-rule="evenodd" d="M260.768 73.2271C260.768 70.0727 263.325 67.5155 266.48 67.5155H377.984C381.139 67.5155 383.696 70.0727 383.696 73.2271V115.587C383.696 118.742 381.139 121.299 377.984 121.299H266.48C263.325 121.299 260.768 118.742 260.768 115.587V73.2271Z" fill="#FCFCFE"/>
</g>
<path d="M308.325 103.301H309.742L311.828 109.264L313.914 103.301H315.331L312.397 111.422H311.259L308.325 103.301ZM307.561 103.301H308.972L309.229 109.113V111.422H307.561V103.301ZM314.684 103.301H316.101V111.422H314.427V109.113L314.684 103.301ZM326.462 103.301V111.422H324.789L321.526 105.979V111.422H319.852V103.301H321.526L324.794 108.751V103.301H326.462ZM336.874 107.172V107.557C336.874 108.174 336.79 108.728 336.623 109.219C336.455 109.71 336.219 110.128 335.914 110.474C335.609 110.816 335.245 111.078 334.821 111.261C334.401 111.443 333.934 111.534 333.421 111.534C332.911 111.534 332.445 111.443 332.021 111.261C331.601 111.078 331.236 110.816 330.928 110.474C330.619 110.128 330.379 109.71 330.208 109.219C330.041 108.728 329.957 108.174 329.957 107.557V107.172C329.957 106.551 330.041 105.997 330.208 105.51C330.375 105.019 330.611 104.601 330.916 104.255C331.225 103.909 331.589 103.645 332.01 103.463C332.434 103.281 332.9 103.19 333.41 103.19C333.923 103.19 334.39 103.281 334.81 103.463C335.234 103.645 335.598 103.909 335.903 104.255C336.212 104.601 336.45 105.019 336.617 105.51C336.788 105.997 336.874 106.551 336.874 107.172ZM335.183 107.557V107.161C335.183 106.73 335.144 106.35 335.066 106.023C334.988 105.696 334.873 105.421 334.72 105.198C334.568 104.975 334.382 104.807 334.163 104.696C333.943 104.58 333.692 104.523 333.41 104.523C333.127 104.523 332.876 104.58 332.657 104.696C332.441 104.807 332.257 104.975 332.104 105.198C331.956 105.421 331.842 105.696 331.764 106.023C331.686 106.35 331.647 106.73 331.647 107.161V107.557C331.647 107.985 331.686 108.364 331.764 108.695C331.842 109.022 331.958 109.299 332.11 109.526C332.263 109.749 332.448 109.918 332.668 110.034C332.887 110.149 333.138 110.206 333.421 110.206C333.703 110.206 333.954 110.149 334.174 110.034C334.393 109.918 334.577 109.749 334.726 109.526C334.875 109.299 334.988 109.022 335.066 108.695C335.144 108.364 335.183 107.985 335.183 107.557Z" fill="black"/>
<path d="M325.65 74.3536H325.874V76.5429H325.65C324.284 76.5429 323.14 76.766 322.22 77.2122C321.3 77.6491 320.57 78.2395 320.031 78.9832C319.492 79.7176 319.101 80.545 318.859 81.4653C318.627 82.3856 318.511 83.3199 318.511 84.2681V87.2523C318.511 88.154 318.618 88.9535 318.832 89.6507C319.045 90.3386 319.338 90.9197 319.71 91.3938C320.082 91.8679 320.5 92.2258 320.965 92.4675C321.439 92.7092 321.932 92.8301 322.443 92.8301C323.038 92.8301 323.568 92.7185 324.033 92.4954C324.498 92.263 324.888 91.9423 325.204 91.5332C325.53 91.1149 325.776 90.6222 325.943 90.0551C326.111 89.488 326.194 88.8652 326.194 88.1865C326.194 87.5823 326.12 87.0013 325.971 86.4435C325.822 85.8764 325.595 85.3744 325.288 84.9375C324.981 84.4912 324.595 84.1426 324.13 83.8916C323.675 83.6313 323.131 83.5012 322.499 83.5012C321.783 83.5012 321.114 83.6778 320.491 84.0311C319.877 84.375 319.371 84.8306 318.971 85.3976C318.581 85.9554 318.357 86.5643 318.302 87.2244L316.935 87.2104C317.065 86.1692 317.307 85.2814 317.66 84.547C318.023 83.8033 318.469 83.1991 318.999 82.7342C319.538 82.2601 320.138 81.9162 320.798 81.7023C321.467 81.4792 322.174 81.3677 322.917 81.3677C323.931 81.3677 324.804 81.5583 325.539 81.9394C326.273 82.3206 326.878 82.8319 327.352 83.4733C327.826 84.1055 328.174 84.8213 328.397 85.6208C328.63 86.4109 328.746 87.2244 328.746 88.061C328.746 89.0186 328.611 89.9157 328.342 90.7523C328.072 91.589 327.668 92.3234 327.129 92.9556C326.599 93.5877 325.943 94.0804 325.162 94.4337C324.381 94.7869 323.475 94.9636 322.443 94.9636C321.346 94.9636 320.389 94.7405 319.571 94.2942C318.753 93.8387 318.074 93.2344 317.535 92.4814C316.996 91.7284 316.591 90.8918 316.322 89.9714C316.052 89.0511 315.917 88.1168 315.917 87.1686V85.9554C315.917 84.5238 316.061 83.12 316.349 81.7442C316.638 80.3683 317.135 79.1226 317.841 78.0071C318.557 76.8915 319.547 76.0037 320.812 75.3437C322.076 74.6836 323.689 74.3536 325.65 74.3536Z" fill="black"/>
<g filter="url(#filter6_d_1_5667)">
<path fill-rule="evenodd" clip-rule="evenodd" d="M131.536 73.2271C131.536 70.0727 134.093 67.5155 137.248 67.5155H248.752C251.907 67.5155 254.464 70.0727 254.464 73.2271V115.587C254.464 118.742 251.907 121.299 248.752 121.299H137.248C134.093 121.299 131.536 118.742 131.536 115.587V73.2271Z" fill="#FCFCFE"/>
</g>
<path d="M184.677 108.929V103.301H186.344V108.929C186.344 109.472 186.225 109.939 185.987 110.329C185.749 110.716 185.424 111.013 185.011 111.222C184.602 111.43 184.141 111.534 183.628 111.534C183.096 111.534 182.626 111.445 182.217 111.266C181.808 111.088 181.486 110.814 181.252 110.446C181.018 110.074 180.9 109.604 180.9 109.035H182.579C182.579 109.333 182.62 109.569 182.702 109.744C182.788 109.918 182.908 110.043 183.065 110.117C183.221 110.192 183.409 110.229 183.628 110.229C183.84 110.229 184.024 110.179 184.18 110.078C184.336 109.978 184.457 109.831 184.543 109.638C184.632 109.444 184.677 109.208 184.677 108.929ZM191.73 103.301V111.422H190.057V103.301H191.73ZM196.594 103.301L193.376 107.312L191.518 109.308L191.217 107.724L192.472 106.006L194.542 103.301H196.594ZM194.692 111.422L192.299 107.669L193.538 106.631L196.672 111.422H194.692ZM204.825 110.117V111.422H200.736V110.117H204.825ZM201.277 103.301V111.422H199.604V103.301H201.277Z" fill="black"/>
<path d="M189.781 85.0211L187.717 84.4912L188.735 74.3815H199.152V76.766H190.924L190.311 82.288C190.683 82.0742 191.152 81.8743 191.719 81.6884C192.296 81.5025 192.956 81.4095 193.699 81.4095C194.638 81.4095 195.48 81.5722 196.223 81.8976C196.967 82.2136 197.599 82.6692 198.12 83.2641C198.65 83.8591 199.054 84.5749 199.333 85.4116C199.612 86.2483 199.751 87.1825 199.751 88.2144C199.751 89.1905 199.616 90.0876 199.347 90.9057C199.087 91.7238 198.691 92.4396 198.162 93.0532C197.632 93.6574 196.962 94.1269 196.154 94.4616C195.354 94.7962 194.41 94.9636 193.323 94.9636C192.505 94.9636 191.728 94.852 190.994 94.6289C190.269 94.3965 189.618 94.0479 189.042 93.5831C188.475 93.1089 188.01 92.5233 187.647 91.8261C187.294 91.1195 187.071 90.2922 186.978 89.3439H189.432C189.544 90.1062 189.767 90.7477 190.102 91.2683C190.436 91.7889 190.873 92.184 191.412 92.4536C191.961 92.7139 192.598 92.844 193.323 92.844C193.936 92.844 194.48 92.7371 194.954 92.5233C195.428 92.3095 195.828 92.0027 196.154 91.6029C196.479 91.2032 196.725 90.7198 196.893 90.1527C197.069 89.5856 197.158 88.9488 197.158 88.2423C197.158 87.6009 197.069 87.0059 196.893 86.4574C196.716 85.9089 196.451 85.4302 196.098 85.0211C195.754 84.6121 195.331 84.296 194.829 84.0729C194.327 83.8405 193.75 83.7243 193.1 83.7243C192.235 83.7243 191.58 83.8405 191.134 84.0729C190.697 84.3053 190.246 84.6214 189.781 85.0211Z" fill="black"/>
<g filter="url(#filter7_d_1_5667)">
<path fill-rule="evenodd" clip-rule="evenodd" d="M2.3042 73.2271C2.3042 70.0727 4.8614 67.5155 8.01587 67.5155H119.521C122.675 67.5155 125.232 70.0727 125.232 73.2271V115.587C125.232 118.742 122.675 121.299 119.521 121.299H8.01587C4.8614 121.299 2.3042 118.742 2.3042 115.587V73.2271Z" fill="#FCFCFE"/>
</g>
<path d="M58.9085 107.178V110.396C58.7821 110.549 58.5869 110.714 58.3229 110.893C58.0588 111.067 57.7186 111.218 57.3021 111.344C56.8857 111.471 56.3818 111.534 55.7905 111.534C55.2662 111.534 54.7884 111.448 54.357 111.277C53.9257 111.103 53.5538 110.848 53.2415 110.513C52.9329 110.179 52.6949 109.77 52.5275 109.286C52.3602 108.799 52.2765 108.243 52.2765 107.618V107.111C52.2765 106.486 52.3565 105.93 52.5164 105.443C52.68 104.956 52.9124 104.545 53.2136 104.21C53.5148 103.876 53.8736 103.621 54.2901 103.446C54.7066 103.271 55.1695 103.184 55.679 103.184C56.3855 103.184 56.9656 103.299 57.4193 103.53C57.8729 103.757 58.2187 104.073 58.4567 104.478C58.6984 104.88 58.8472 105.341 58.903 105.861H57.2798C57.2389 105.586 57.1608 105.346 57.0455 105.142C56.9303 104.937 56.7648 104.777 56.5491 104.662C56.3372 104.547 56.062 104.489 55.7236 104.489C55.4447 104.489 55.1956 104.547 54.9762 104.662C54.7605 104.774 54.5783 104.939 54.4296 105.159C54.2808 105.378 54.1674 105.649 54.0893 105.973C54.0112 106.296 53.9722 106.672 53.9722 107.1V107.618C53.9722 108.042 54.0131 108.418 54.0949 108.745C54.1767 109.069 54.2976 109.342 54.4574 109.565C54.6211 109.784 54.8219 109.95 55.0599 110.061C55.2978 110.173 55.5749 110.229 55.8909 110.229C56.155 110.229 56.3744 110.206 56.5491 110.162C56.7276 110.117 56.8708 110.063 56.9786 110C57.0902 109.933 57.1757 109.87 57.2352 109.81V108.371H55.7069V107.178H58.9085ZM67.9591 106.609V107.914H63.7199V106.609H67.9591ZM64.2164 103.301V111.422H62.543V103.301H64.2164ZM69.1527 103.301V111.422H67.485V103.301H69.1527ZM74.6725 103.301V111.422H73.0047V103.301H74.6725Z" fill="black"/>
<path d="M71.0073 87.8519V89.9714H56.3377V88.4515L65.4295 74.3815H67.5352L65.2761 78.4533L59.2661 87.8519H71.0073ZM68.1766 74.3815V94.6847H65.5969V74.3815H68.1766Z" fill="black"/>
<g filter="url(#filter8_d_1_5667)">
<path fill-rule="evenodd" clip-rule="evenodd" d="M260.768 12.5776C260.768 9.42318 263.325 6.86598 266.48 6.86598H377.984C381.139 6.86598 383.696 9.42318 383.696 12.5776V53.7935C383.696 56.948 381.139 59.5052 377.984 59.5052H266.48C263.325 59.5052 260.768 56.948 260.768 53.7935V12.5776Z" fill="#FCFCFE"/>
</g>
<path d="M312.966 50.0515H311.198L311.209 48.7463H312.966C313.405 48.7463 313.775 48.6478 314.076 48.4507C314.377 48.2499 314.604 47.958 314.756 47.575C314.913 47.192 314.991 46.729 314.991 46.1861V45.7901C314.991 45.3736 314.946 45.0074 314.857 44.6913C314.771 44.3752 314.643 44.1093 314.472 43.8937C314.301 43.678 314.091 43.5162 313.842 43.4084C313.593 43.2968 313.306 43.2411 312.983 43.2411H311.164V41.9303H312.983C313.526 41.9303 314.022 42.0232 314.472 42.2092C314.926 42.3914 315.318 42.6535 315.649 42.9956C315.98 43.3377 316.235 43.7468 316.413 44.2227C316.595 44.695 316.686 45.2212 316.686 45.8013V46.1861C316.686 46.7625 316.595 47.2887 316.413 47.7646C316.235 48.2406 315.98 48.6497 315.649 48.9918C315.322 49.3301 314.929 49.5923 314.472 49.7782C314.018 49.9604 313.516 50.0515 312.966 50.0515ZM312.146 41.9303V50.0515H310.473V41.9303H312.146ZM325.636 48.7463V50.0515H321.314V48.7463H325.636ZM321.86 41.9303V50.0515H320.187V41.9303H321.86ZM325.073 45.2379V46.5096H321.314V45.2379H325.073ZM325.631 41.9303V43.2411H321.314V41.9303H325.631ZM330.571 41.9303V50.0515H328.897V41.9303H330.571ZM333.806 45.3997V46.7049H330.113V45.3997H333.806ZM334.196 41.9303V43.2411H330.113V41.9303H334.196Z" fill="black"/>
<path d="M319.515 22.5898H321.356C322.257 22.5898 323.001 22.441 323.587 22.1435C324.182 21.8368 324.623 21.4231 324.911 20.9025C325.209 20.3726 325.358 19.7776 325.358 19.1176C325.358 18.3367 325.227 17.6813 324.967 17.1514C324.707 16.6215 324.316 16.2218 323.796 15.9522C323.275 15.6826 322.615 15.5478 321.816 15.5478C321.091 15.5478 320.449 15.6919 319.891 15.9801C319.343 16.259 318.911 16.6587 318.594 17.1793C318.288 17.6999 318.134 18.3135 318.134 19.02H315.555C315.555 17.9881 315.815 17.0492 316.335 16.2032C316.856 15.3572 317.586 14.6832 318.525 14.1812C319.473 13.6792 320.57 13.4282 321.816 13.4282C323.043 13.4282 324.117 13.6467 325.037 14.0836C325.957 14.5113 326.673 15.1527 327.184 16.008C327.696 16.8539 327.951 17.9091 327.951 19.1734C327.951 19.6847 327.83 20.2331 327.589 20.8188C327.356 21.3952 326.989 21.9344 326.487 22.4364C325.994 22.9384 325.353 23.3521 324.563 23.6774C323.773 23.9935 322.824 24.1516 321.718 24.1516H319.515V22.5898ZM319.515 24.7093V23.1615H321.718C323.01 23.1615 324.079 23.3149 324.925 23.6217C325.771 23.9284 326.436 24.3375 326.919 24.8488C327.412 25.3601 327.756 25.9225 327.951 26.5361C328.156 27.1403 328.258 27.7446 328.258 28.3488C328.258 29.2971 328.095 30.1384 327.77 30.8728C327.454 31.6072 327.003 32.2301 326.417 32.7414C325.841 33.2527 325.162 33.6385 324.381 33.8988C323.601 34.1591 322.75 34.2892 321.83 34.2892C320.946 34.2892 320.114 34.1637 319.334 33.9127C318.562 33.6617 317.879 33.2991 317.284 32.825C316.689 32.3416 316.224 31.7513 315.889 31.0541C315.555 30.3476 315.387 29.5434 315.387 28.6417H317.967C317.967 29.3482 318.12 29.9664 318.427 30.4963C318.743 31.0262 319.189 31.4399 319.766 31.7374C320.352 32.0255 321.039 32.1696 321.83 32.1696C322.62 32.1696 323.298 32.0348 323.866 31.7653C324.442 31.4864 324.883 31.068 325.19 30.5102C325.506 29.9525 325.664 29.2506 325.664 28.4046C325.664 27.5587 325.488 26.8661 325.134 26.3269C324.781 25.7784 324.279 25.374 323.628 25.1137C322.987 24.8441 322.229 24.7093 321.356 24.7093H319.515Z" fill="black"/>
<g filter="url(#filter9_d_1_5667)">
<path fill-rule="evenodd" clip-rule="evenodd" d="M131.536 12.5776C131.536 9.42318 134.093 6.86598 137.248 6.86598H248.752C251.907 6.86598 254.464 9.42318 254.464 12.5776V53.7935C254.464 56.948 251.907 59.5052 248.752 59.5052H137.248C134.093 59.5052 131.536 56.948 131.536 53.7935V12.5776Z" fill="#FCFCFE"/>
</g>
<path d="M183.383 43.3191L181.174 50.0515H179.394L182.412 41.9303H183.544L183.383 43.3191ZM185.218 50.0515L183.003 43.3191L182.825 41.9303H183.968L187.003 50.0515H185.218ZM185.117 47.0284V48.3392H180.828V47.0284H185.117ZM193.22 46.4873H191.134L191.122 45.3383H192.874C193.182 45.3383 193.435 45.2993 193.632 45.2212C193.829 45.1394 193.976 45.0222 194.073 44.8698C194.173 44.7136 194.224 44.5239 194.224 44.3008C194.224 44.048 194.175 43.8435 194.079 43.6873C193.986 43.5311 193.839 43.4177 193.638 43.347C193.441 43.2764 193.186 43.2411 192.874 43.2411H191.714V50.0515H190.04V41.9303H192.874C193.346 41.9303 193.768 41.9749 194.14 42.0641C194.516 42.1534 194.833 42.2891 195.094 42.4713C195.354 42.6535 195.553 42.8841 195.691 43.163C195.828 43.4381 195.897 43.7654 195.897 44.1447C195.897 44.4793 195.821 44.788 195.668 45.0706C195.52 45.3532 195.283 45.5837 194.96 45.7622C194.64 45.9407 194.222 46.0392 193.705 46.0578L193.22 46.4873ZM193.147 50.0515H190.676L191.329 48.7463H193.147C193.441 48.7463 193.681 48.6999 193.867 48.6069C194.053 48.5102 194.19 48.3801 194.279 48.2164C194.369 48.0528 194.413 47.865 194.413 47.6531C194.413 47.4151 194.372 47.2087 194.291 47.034C194.212 46.8592 194.086 46.7253 193.911 46.6324C193.736 46.5357 193.506 46.4873 193.22 46.4873H191.608L191.619 45.3383H193.627L194.012 45.7901C194.506 45.7827 194.904 45.8701 195.205 46.0523C195.51 46.2308 195.731 46.4632 195.869 46.7495C196.01 47.0358 196.081 47.3426 196.081 47.6698C196.081 48.1904 195.968 48.6292 195.741 48.9862C195.514 49.3394 195.181 49.6053 194.742 49.7838C194.307 49.9623 193.776 50.0515 193.147 50.0515ZM204.328 47.3575H205.996C205.963 47.9041 205.812 48.3894 205.544 48.8133C205.28 49.2372 204.91 49.5681 204.434 49.8061C203.962 50.0441 203.393 50.1631 202.728 50.1631C202.207 50.1631 201.74 50.0739 201.327 49.8954C200.915 49.7132 200.561 49.4529 200.268 49.1145C199.978 48.7761 199.756 48.367 199.604 47.8874C199.451 47.4077 199.375 46.8703 199.375 46.2754V45.712C199.375 45.1171 199.453 44.5797 199.61 44.1C199.769 43.6166 199.996 43.2057 200.29 42.8673C200.588 42.529 200.943 42.2687 201.355 42.0864C201.768 41.9042 202.229 41.8131 202.739 41.8131C203.415 41.8131 203.986 41.9358 204.451 42.1813C204.92 42.4267 205.282 42.7651 205.539 43.1964C205.799 43.6278 205.955 44.1186 206.007 44.669H204.334C204.315 44.3417 204.25 44.0647 204.139 43.8379C204.027 43.6073 203.858 43.4344 203.631 43.3191C203.408 43.2001 203.111 43.1407 202.739 43.1407C202.46 43.1407 202.216 43.1927 202.008 43.2968C201.8 43.4009 201.625 43.559 201.484 43.7709C201.342 43.9829 201.236 44.2506 201.166 44.5741C201.099 44.8939 201.065 45.2695 201.065 45.7009V46.2754C201.065 46.6956 201.097 47.0656 201.16 47.3854C201.223 47.7014 201.32 47.9692 201.45 48.1886C201.584 48.4042 201.755 48.5678 201.963 48.6794C202.175 48.7872 202.43 48.8412 202.728 48.8412C203.077 48.8412 203.365 48.7854 203.592 48.6738C203.819 48.5623 203.992 48.3968 204.111 48.1774C204.234 47.958 204.306 47.6847 204.328 47.3575Z" fill="black"/>
<path d="M199.821 31.8908V34.0103H186.532V32.1557L193.183 24.7512C194.001 23.8401 194.634 23.0685 195.08 22.4364C195.535 21.7949 195.851 21.2232 196.028 20.7212C196.214 20.2099 196.307 19.6893 196.307 19.1594C196.307 18.4901 196.167 17.8858 195.889 17.3466C195.619 16.7982 195.219 16.3612 194.689 16.0359C194.159 15.7105 193.518 15.5478 192.765 15.5478C191.863 15.5478 191.11 15.7244 190.506 16.0777C189.911 16.4217 189.465 16.9051 189.167 17.5279C188.87 18.1508 188.721 18.8666 188.721 19.6754H186.141C186.141 18.5319 186.392 17.4861 186.894 16.5379C187.396 15.5896 188.14 14.8366 189.126 14.2788C190.111 13.7118 191.324 13.4282 192.765 13.4282C194.048 13.4282 195.145 13.656 196.056 14.1115C196.967 14.5577 197.664 15.1899 198.148 16.008C198.64 16.8167 198.887 17.765 198.887 18.8526C198.887 19.4476 198.784 20.0519 198.58 20.6654C198.385 21.2697 198.11 21.874 197.757 22.4782C197.413 23.0825 197.009 23.6774 196.544 24.2631C196.088 24.8488 195.6 25.4252 195.08 25.9922L189.641 31.8908H199.821Z" fill="black"/>
<g filter="url(#filter10_d_1_5667)">
<path fill-rule="evenodd" clip-rule="evenodd" d="M2.3042 12.5776C2.3042 9.42318 4.8614 6.86598 8.01587 6.86598H119.521C122.675 6.86598 125.232 9.42318 125.232 12.5776V53.7935C125.232 56.948 122.675 59.5052 119.521 59.5052H8.01587C4.8614 59.5052 2.3042 56.948 2.3042 53.7935V12.5776Z" fill="#FCFCFE"/>
</g>
<path d="M65.7642 13.5956V34.0103H63.1845V16.8167L57.9832 18.7132V16.3845L65.3598 13.5956H65.7642Z" fill="black"/>
</g>
<defs>
<filter id="filter0_b_1_5667" x="-128.207" y="-124.207" width="643.932" height="581.834" filterUnits="userSpaceOnUse" color-interpolation-filters="sRGB">
<feFlood flood-opacity="0" result="BackgroundImageFix"/>
<feGaussianBlur in="BackgroundImageFix" stdDeviation="62.1037"/>
<feComposite in2="SourceAlpha" operator="in" result="effect1_backgroundBlur_1_5667"/>
<feBlend mode="normal" in="SourceGraphic" in2="effect1_backgroundBlur_1_5667" result="shape"/>
</filter>
<filter id="filter1_d_1_5667" x="131.536" y="191.103" width="122.928" height="53.7815" filterUnits="userSpaceOnUse" color-interpolation-filters="sRGB">
<feFlood flood-opacity="0" result="BackgroundImageFix"/>
<feColorMatrix in="SourceAlpha" type="matrix" values="0 0 0 0 0 0 0 0 0 0 0 0 0 0 0 0 0 0 127 0" result="hardAlpha"/>
<feOffset dy="1.14233"/>
<feColorMatrix type="matrix" values="0 0 0 0 0.537255 0 0 0 0 0.541176 0 0 0 0 0.552941 0 0 0 1 0"/>
<feBlend mode="normal" in2="BackgroundImageFix" result="effect1_dropShadow_1_5667"/>
<feBlend mode="normal" in="SourceGraphic" in2="effect1_dropShadow_1_5667" result="shape"/>
</filter>
<filter id="filter2_d_1_5667" x="260.768" y="129.309" width="122.928" height="54.9258" filterUnits="userSpaceOnUse" color-interpolation-filters="sRGB">
<feFlood flood-opacity="0" result="BackgroundImageFix"/>
<feColorMatrix in="SourceAlpha" type="matrix" values="0 0 0 0 0 0 0 0 0 0 0 0 0 0 0 0 0 0 127 0" result="hardAlpha"/>
<feOffset dy="1.14233"/>
<feColorMatrix type="matrix" values="0 0 0 0 0.537255 0 0 0 0 0.541176 0 0 0 0 0.552941 0 0 0 1 0"/>
<feBlend mode="normal" in2="BackgroundImageFix" result="effect1_dropShadow_1_5667"/>
<feBlend mode="normal" in="SourceGraphic" in2="effect1_dropShadow_1_5667" result="shape"/>
</filter>
<filter id="filter3_d_1_5667" x="131.536" y="129.309" width="122.928" height="54.9258" filterUnits="userSpaceOnUse" color-interpolation-filters="sRGB">
<feFlood flood-opacity="0" result="BackgroundImageFix"/>
<feColorMatrix in="SourceAlpha" type="matrix" values="0 0 0 0 0 0 0 0 0 0 0 0 0 0 0 0 0 0 127 0" result="hardAlpha"/>
<feOffset dy="1.14233"/>
<feColorMatrix type="matrix" values="0 0 0 0 0.537255 0 0 0 0 0.541176 0 0 0 0 0.552941 0 0 0 1 0"/>
<feBlend mode="normal" in2="BackgroundImageFix" result="effect1_dropShadow_1_5667"/>
<feBlend mode="normal" in="SourceGraphic" in2="effect1_dropShadow_1_5667" result="shape"/>
</filter>
<filter id="filter4_d_1_5667" x="2.3042" y="129.309" width="122.928" height="54.9258" filterUnits="userSpaceOnUse" color-interpolation-filters="sRGB">
<feFlood flood-opacity="0" result="BackgroundImageFix"/>
<feColorMatrix in="SourceAlpha" type="matrix" values="0 0 0 0 0 0 0 0 0 0 0 0 0 0 0 0 0 0 127 0" result="hardAlpha"/>
<feOffset dy="1.14233"/>
<feColorMatrix type="matrix" values="0 0 0 0 0.537255 0 0 0 0 0.541176 0 0 0 0 0.552941 0 0 0 1 0"/>
<feBlend mode="normal" in2="BackgroundImageFix" result="effect1_dropShadow_1_5667"/>
<feBlend mode="normal" in="SourceGraphic" in2="effect1_dropShadow_1_5667" result="shape"/>
</filter>
<filter id="filter5_d_1_5667" x="260.768" y="67.5155" width="122.928" height="54.9258" filterUnits="userSpaceOnUse" color-interpolation-filters="sRGB">
<feFlood flood-opacity="0" result="BackgroundImageFix"/>
<feColorMatrix in="SourceAlpha" type="matrix" values="0 0 0 0 0 0 0 0 0 0 0 0 0 0 0 0 0 0 127 0" result="hardAlpha"/>
<feOffset dy="1.14233"/>
<feColorMatrix type="matrix" values="0 0 0 0 0.537255 0 0 0 0 0.541176 0 0 0 0 0.552941 0 0 0 1 0"/>
<feBlend mode="normal" in2="BackgroundImageFix" result="effect1_dropShadow_1_5667"/>
<feBlend mode="normal" in="SourceGraphic" in2="effect1_dropShadow_1_5667" result="shape"/>
</filter>
<filter id="filter6_d_1_5667" x="131.536" y="67.5155" width="122.928" height="54.9258" filterUnits="userSpaceOnUse" color-interpolation-filters="sRGB">
<feFlood flood-opacity="0" result="BackgroundImageFix"/>
<feColorMatrix in="SourceAlpha" type="matrix" values="0 0 0 0 0 0 0 0 0 0 0 0 0 0 0 0 0 0 127 0" result="hardAlpha"/>
<feOffset dy="1.14233"/>
<feColorMatrix type="matrix" values="0 0 0 0 0.537255 0 0 0 0 0.541176 0 0 0 0 0.552941 0 0 0 1 0"/>
<feBlend mode="normal" in2="BackgroundImageFix" result="effect1_dropShadow_1_5667"/>
<feBlend mode="normal" in="SourceGraphic" in2="effect1_dropShadow_1_5667" result="shape"/>
</filter>
<filter id="filter7_d_1_5667" x="2.3042" y="67.5155" width="122.928" height="54.9258" filterUnits="userSpaceOnUse" color-interpolation-filters="sRGB">
<feFlood flood-opacity="0" result="BackgroundImageFix"/>
<feColorMatrix in="SourceAlpha" type="matrix" values="0 0 0 0 0 0 0 0 0 0 0 0 0 0 0 0 0 0 127 0" result="hardAlpha"/>
<feOffset dy="1.14233"/>
<feColorMatrix type="matrix" values="0 0 0 0 0.537255 0 0 0 0 0.541176 0 0 0 0 0.552941 0 0 0 1 0"/>
<feBlend mode="normal" in2="BackgroundImageFix" result="effect1_dropShadow_1_5667"/>
<feBlend mode="normal" in="SourceGraphic" in2="effect1_dropShadow_1_5667" result="shape"/>
</filter>
<filter id="filter8_d_1_5667" x="260.768" y="6.86598" width="122.928" height="53.7815" filterUnits="userSpaceOnUse" color-interpolation-filters="sRGB">
<feFlood flood-opacity="0" result="BackgroundImageFix"/>
<feColorMatrix in="SourceAlpha" type="matrix" values="0 0 0 0 0 0 0 0 0 0 0 0 0 0 0 0 0 0 127 0" result="hardAlpha"/>
<feOffset dy="1.14233"/>
<feColorMatrix type="matrix" values="0 0 0 0 0.537255 0 0 0 0 0.541176 0 0 0 0 0.552941 0 0 0 1 0"/>
<feBlend mode="normal" in2="BackgroundImageFix" result="effect1_dropShadow_1_5667"/>
<feBlend mode="normal" in="SourceGraphic" in2="effect1_dropShadow_1_5667" result="shape"/>
</filter>
<filter id="filter9_d_1_5667" x="131.536" y="6.86598" width="122.928" height="53.7815" filterUnits="userSpaceOnUse" color-interpolation-filters="sRGB">
<feFlood flood-opacity="0" result="BackgroundImageFix"/>
<feColorMatrix in="SourceAlpha" type="matrix" values="0 0 0 0 0 0 0 0 0 0 0 0 0 0 0 0 0 0 127 0" result="hardAlpha"/>
<feOffset dy="1.14233"/>
<feColorMatrix type="matrix" values="0 0 0 0 0.537255 0 0 0 0 0.541176 0 0 0 0 0.552941 0 0 0 1 0"/>
<feBlend mode="normal" in2="BackgroundImageFix" result="effect1_dropShadow_1_5667"/>
<feBlend mode="normal" in="SourceGraphic" in2="effect1_dropShadow_1_5667" result="shape"/>
</filter>
<filter id="filter10_d_1_5667" x="2.3042" y="6.86598" width="122.928" height="53.7815" filterUnits="userSpaceOnUse" color-interpolation-filters="sRGB">
<feFlood flood-opacity="0" result="BackgroundImageFix"/>
<feColorMatrix in="SourceAlpha" type="matrix" values="0 0 0 0 0 0 0 0 0 0 0 0 0 0 0 0 0 0 127 0" result="hardAlpha"/>
<feOffset dy="1.14233"/>
<feColorMatrix type="matrix" values="0 0 0 0 0.537255 0 0 0 0 0.541176 0 0 0 0 0.552941 0 0 0 1 0"/>
<feBlend mode="normal" in2="BackgroundImageFix" result="effect1_dropShadow_1_5667"/>
<feBlend mode="normal" in="SourceGraphic" in2="effect1_dropShadow_1_5667" result="shape"/>
</filter>
</defs>
</svg>
